<svg 
    xmlns="http://www.w3.org/2000/svg" 
    xmlns:xlink="http://www.w3.org/1999/xlink" 
    version="1.1" 
    x="0px" 
    y="0px" 
    viewBox="0 0 100 92" 
    style="enable-background:new 0 0 100 100;" 
    xml:space="preserve">

    <g>
    <path fill="#ffffff" d="M89,45H79c-1.1,0-2,0.9-2,2s0.9,2,2,2h10c1.1,0,2-0.9,2-2S90.1,45,89,45z"/>
    <path fill="#ffffff" d="M21,45H11c-1.1,0-2,0.9-2,2s0.9,2,2,2h10c1.1,0,2-0.9,2-2S22.1,45,21,45z"/>
    <path fill="#ffffff" d="M48,8v9.6c0,1.1,0.9,2,2,2s2-0.9,2-2V8c0-1.1-0.9-2-2-2S48,6.9,48,8z"/>
    <path fill="#ffffff" d="M75.8,17.9L69,24.7c-0.8,0.8-0.8,2,0,2.8c0.4,0.4,0.9,0.6,1.4,0.6s1-0.2,1.4-0.6l6.8-6.8c0.8-0.8,0.8-2,0-2.8   C77.9,17.1,76.6,17.1,75.8,17.9z"/>
    <path fill="#ffffff" d="M21.3,17.9c-0.8,0.8-0.8,2,0,2.8l6.8,6.8c0.4,0.4,0.9,0.6,1.4,0.6s1-0.2,1.4-0.6c0.8-0.8,0.8-2,0-2.8l-6.8-6.8   C23.4,17.1,22.1,17.1,21.3,17.9z"/>
    <path fill="#ffffff" d="M50,23c-13.2,0-24,10.8-24,24c0,6.6,2.6,12.7,7.3,17.2c-1.1,0.9-1.8,2.3-1.8,3.8c0,1.1,0.4,2.2,1,3c-0.6,0.7-0.9,1.6-1,2.6   c0,0.1,0,0.3,0,0.4c0,1.1,0.4,2.2,1,3c-0.6,0.8-1,1.9-1,3c0,2.6,2,4.7,4.5,5c0.3,3.4,3.2,6,6.7,6h14.6c3.5,0,6.3-2.7,6.7-6   c2.5-0.2,4.5-2.4,4.5-5c0-1.1-0.4-2.2-1-3c0.6-0.8,1-1.9,1-3s-0.4-2.2-1-3c0.6-0.8,1-1.9,1-3c0-1.5-0.7-2.9-1.8-3.8   C71.3,59.7,74,53.5,74,47C74,33.8,63.2,23,50,23z M57.3,87H42.7c-1.2,0-2.3-0.9-2.6-2h19.8C59.6,86.1,58.5,87,57.3,87z M43,73h20.5   c0.6,0,1,0.4,1,1s-0.4,1-1,1H43c-1.1,0-2,0.9-2,2s0.9,2,2,2h20.5c0.6,0,1,0.4,1,1s-0.4,1-1,1h-27c-0.6,0-1-0.4-1-1s0.4-1,1-1   c1.1,0,2-0.9,2-2s-0.9-2-2-2c-0.6,0-1-0.4-1-1s0.4-1,1-1c1.1,0,2-0.9,2-2s-0.9-2-2-2c-0.6,0-1-0.4-1-1s0.4-1,1-1h27   c0.6,0,1,0.4,1,1s-0.4,1-1,1H43c-1.1,0-2,0.9-2,2S41.9,73,43,73z M62,63H38c-0.1-0.1-0.1-0.1-0.2-0.2C32.8,59,30,53.3,30,47   c0-11,9-20,20-20s20,9,20,20C70,53.3,67,59.2,62,63z"/></g>
</svg>