<svg 
    xmlns:dc="http://purl.org/dc/elements/1.1/"
    xmlns:cc="http://creativecommons.org/ns#" 
    xmlns:rdf="http://www.w3.org/1999/02/22-rdf-syntax-ns#" 
    xmlns:svg="http://www.w3.org/2000/svg"
    xmlns="http://www.w3.org/2000/svg"
    xmlns:sodipodi="http://sodipodi.sourceforge.net/DTD/sodipodi-0.dtd"
    xmlns:inkscape="http://www.inkscape.org/namespaces/inkscape"
    version="1.1"
    x="0px"
    y="0px"
    viewBox="0 0 100 100">
    <g 
        transform="translate(0,-952.36218)">
        <path style="text-indent:0;text-transform:none;direction:ltr;block-progression:tb;baseline-shift:baseline;color:#000000;enable-background:accumulate;"
        d="m 50,958.36217 c 2.2965,0 4.4817,0.77301 6.5,2.125 0.9861,-0.71126 2.1974,-1.125 3.5,-1.125 3.3019,0 6,2.69815 6,6 0,1.70677 -0.7224,3.24888 -1.875,4.34375 0.7411,1.41198 1.4573,2.9448 2.0938,4.5625 2.7045,-0.40435 5.2778,-0.57802 7.6562,-0.5 6.509,0.21353 11.7687,2.29616 14.25,6.59375 3.052,5.2862 1.1374,12.4115 -3.9062,19.59375 -0.5569,0.79288 -1.147,1.61058 -1.7813,2.40628 0.6343,0.7956 1.2244,1.582 1.7813,2.375 5.0436,7.1822 6.9582,14.3388 3.9062,19.625 -0.4193,0.7261 -0.9295,1.3741 -1.5,1.9687 0.2329,0.6386 0.375,1.3144 0.375,2.0313 0,3.3018 -2.6981,6 -6,6 -2.4373,0 -4.5317,-1.4647 -5.4688,-3.5625 -2.8257,0.2429 -5.9393,0.122 -9.2812,-0.375 -0.3757,0.9583 -0.7742,1.8615 -1.1875,2.75 -3.7013,7.9578 -8.9587,13.1875 -15.0625,13.1875 -6.1038,0 -11.3612,-5.2297 -15.0625,-13.1875 -0.4078,-0.8767 -0.7851,-1.7741 -1.1563,-2.7188 -2.8399,0.4278 -5.5217,0.5771 -8,0.4688 -0.69,2.5517 -3.018,4.4375 -5.7812,4.4375 -3.3019,0 -6,-2.6982 -6,-6 0,-0.7277 0.1353,-1.4159 0.375,-2.0625 -1.0027,-0.8295 -1.8522,-1.8155 -2.5,-2.9375 -3.052,-5.2862 -1.1374,-12.4428 3.9062,-19.625 0.5569,-0.793 1.147,-1.5794 1.7813,-2.375 -0.6343,-0.7957 -1.2244,-1.6134 -1.7813,-2.40628 -5.0436,-7.18225 -6.9582,-14.30755 -3.9062,-19.59375 2.6715,-4.62725 8.5161,-6.66885 15.75,-6.59375 1.9348,0.0201 3.9919,0.21397 6.125,0.53125 0.3757,-0.95898 0.7742,-1.89276 1.1875,-2.78125 3.7013,-7.95783 8.9587,-13.15625 15.0625,-13.15625 z m 0,2 c -4.9419,0 -9.7127,4.39489 -13.25,12 -0.3383,0.72726 -0.6555,1.50006 -0.9688,2.28125 4.4811,0.84037 9.2896,2.29157 14.2188,4.34375 4.9138,-2.05133 9.7187,-3.53122 14.1875,-4.375 -0.5376,-1.33756 -1.1108,-2.60573 -1.7187,-3.78125 -0.7527,0.34149 -1.5917,0.53125 -2.4688,0.53125 -3.3019,0 -6,-2.69815 -6,-6 0,-1.27815 0.4066,-2.46176 1.0938,-3.4375 -1.6488,-1.03538 -3.3465,-1.5625 -5.0938,-1.5625 z m 10,1 c -2.2209,0 -4,1.77905 -4,4 0,2.22095 1.7791,4 4,4 2.2209,0 4,-1.77905 4,-4 0,-2.22095 -1.7791,-4 -4,-4 z m 13.8125,14.40625 c -2.1168,-0.0694 -4.4311,0.0912 -6.875,0.4375 1.5042,4.29339 2.6288,9.18728 3.3125,14.46875 4.2358,3.23501 7.9069,6.67429 10.875,10.12503 0.5136,-0.6544 1.0128,-1.31955 1.4688,-1.96878 4.8202,-6.864 6.252,-13.1891 3.7812,-17.46875 -2.0061,-3.47467 -6.4417,-5.39296 -12.5625,-5.59375 z m -46.1875,0 c -6.8481,-0.0711 -11.8391,1.85086 -14,5.59375 -2.4708,4.27965 -1.0389,10.60475 3.7812,17.46875 0.456,0.64923 0.9552,1.31438 1.4688,1.96878 2.9681,-3.45074 6.6392,-6.89002 10.875,-10.12503 0.6805,-5.27542 1.7826,-10.18024 3.2812,-14.46875 -1.8957,-0.26691 -3.7005,-0.41979 -5.4062,-0.4375 z m 37.2812,0.75 c -3.881,0.70829 -8.0611,1.91685 -12.375,3.59375 2.6437,1.20109 5.3123,2.52879 7.9688,4.0625 2.6457,1.52752 5.1463,3.1633 7.5,4.84375 -0.7032,-4.56442 -1.771,-8.79019 -3.0938,-12.5 z m -29.8437,0.0312 c -1.3174,3.70261 -2.3648,7.91516 -3.0625,12.46875 2.3537,-1.68045 4.8543,-3.31623 7.5,-4.84375 2.6462,-1.5278 5.3061,-2.86312 7.9375,-4.0625 -4.3135,-1.67137 -8.4947,-2.86019 -12.375,-3.5625 z m 14.9063,4.59375 c -3.1321,1.33962 -6.3006,2.92086 -9.4688,4.75 -3.1662,1.82803 -6.147,3.80081 -8.875,5.84375 -0.4051,3.39697 -0.625,6.95361 -0.625,10.62498 0,3.6714 0.2199,7.2323 0.625,10.625 2.728,2.0388 5.7088,3.9845 8.875,5.8125 3.184,1.8383 6.3844,3.4374 9.5312,4.7813 3.1301,-1.341 6.3041,-2.9541 9.4688,-4.7813 3.1662,-1.828 6.147,-3.7737 8.875,-5.8125 0.4051,-3.3927 0.625,-6.9536 0.625,-10.625 0,-3.67432 -0.2477,-7.22537 -0.6562,-10.62498 -2.7225,-2.03755 -5.6853,-4.02019 -8.8438,-5.84375 -3.1868,-1.8399 -6.3814,-3.40685 -9.5312,-4.75 z m 20.5937,12.34375 c 0.2768,2.87347 0.4375,5.82823 0.4375,8.87498 0,3.0443 -0.131,6.038 -0.4062,8.9063 3.5981,-2.8862 6.7022,-5.909 9.25,-8.9063 -2.5481,-2.99871 -5.6849,-5.98502 -9.2813,-8.87498 z m -41.1563,0 c -3.5883,2.8853 -6.7064,5.88157 -9.25,8.87498 2.5478,2.9973 5.6519,6.0201 9.25,8.9063 -0.2752,-2.8682 -0.4062,-5.862 -0.4062,-8.9062 0,-3.04427 0.131,-6.00377 0.4062,-8.87503 z M 50,995.36217 c 3.8541,0 7,3.14587 7,7.00003 0,3.8541 -3.1459,7 -7,7 -3.8541,0 -7,-3.1459 -7,-7 0,-3.85416 3.1459,-7.00003 7,-7.00003 z m 0,2 c -2.7733,0 -5,2.22677 -5,5.00003 0,2.7732 2.2267,5 5,5 2.7733,0 5,-2.2268 5,-5 0,-2.77326 -2.2267,-5.00003 -5,-5.00003 z m 31.125,6.59373 c -2.9586,3.4367 -6.6276,6.8397 -10.8438,10.0625 -0.6795,5.294 -1.8076,10.1982 -3.3124,14.5 2.9155,0.4124 5.628,0.5239 8.0624,0.3438 -0.013,-0.1619 -0.031,-0.3348 -0.031,-0.5 0,-3.3019 2.6981,-6 6,-6 1.8323,0 3.4912,0.8212 4.5938,2.125 0.2935,-0.3512 0.5515,-0.7271 0.7812,-1.125 2.4708,-4.2797 1.0389,-10.6048 -3.7812,-17.4688 -0.456,-0.6492 -0.9552,-1.2826 -1.4688,-1.9375 z m -62.25,0 c -0.5136,0.6549 -1.0128,1.2883 -1.4688,1.9375 -4.8202,6.864 -6.252,13.1891 -3.7812,17.4688 0.4595,0.7958 1.0454,1.5263 1.75,2.1562 1.1026,-1.324 2.7763,-2.1562 4.625,-2.1562 3.1605,0 5.7513,2.4864 5.9688,5.5937 2.177,0.086 4.5315,-0.076 7.0624,-0.4375 -1.5048,-4.3018 -2.6329,-9.206 -3.3124,-14.5 -4.2162,-3.2228 -7.8852,-6.6258 -10.8438,-10.0625 z m 49.1562,11.75 c -2.3596,1.6858 -4.8777,3.2806 -7.5312,4.8125 -2.6467,1.5281 -5.3059,2.8918 -7.9375,4.0938 4.317,1.6759 8.494,2.8561 12.375,3.5625 1.3198,-3.7054 2.3961,-7.9122 3.0937,-12.4688 z m -36.0624,0 c 0.6994,4.5679 1.7693,8.7879 3.0937,12.5 3.874,-0.7102 8.0688,-1.9194 12.375,-3.5937 -2.6296,-1.1985 -5.2938,-2.5674 -7.9375,-4.0938 -2.6535,-1.5319 -5.1716,-3.1267 -7.5312,-4.8125 z M 81,1024.3622 c -2.2209,0 -4,1.779 -4,4 0,2.2209 1.7791,4 4,4 2.2209,0 4,-1.7791 4,-4 0,-2.221 -1.7791,-4 -4,-4 z m -61,1 c -2.2209,0 -4,1.779 -4,4 0,2.2209 1.7791,4 4,4 2.2209,0 4,-1.7791 4,-4 0,-2.221 -1.7791,-4 -4,-4 z m 30.0312,0.375 c -4.9368,2.0681 -9.7627,3.5261 -14.25,4.375 0.31,0.771 0.6345,1.4999 0.9688,2.2187 3.5373,7.6051 8.3081,12.0313 13.25,12.0313 4.9419,0 9.7127,-4.4262 13.25,-12.0313 0.3383,-0.7272 0.6555,-1.4693 0.9688,-2.25 -4.4745,-0.839 -9.2666,-2.2923 -14.1876,-4.3437 z"
        fill="#000000"
        fill-opacity="1" 
        stroke="none" 
        marker="none" 
        visibility="visible" 
        display="inline" 
        overflow="visible"
      /></g>
</svg>