<?xml version="1.0" encoding="UTF-8" standalone="no"?>
<svg xmlns:dc="http://purl.org/dc/elements/1.1/" xmlns:cc="http://creativecommons.org/ns#" xmlns:rdf="http://www.w3.org/1999/02/22-rdf-syntax-ns#" xmlns:svg="http://www.w3.org/2000/svg" xmlns="http://www.w3.org/2000/svg" xmlns:sodipodi="http://sodipodi.sourceforge.net/DTD/sodipodi-0.dtd" xmlns:inkscape="http://www.inkscape.org/namespaces/inkscape" data-name="Layer 1" viewBox="0 0 98.553673 78.915252" x="0px" y="0px" version="1.1" id="svg18" sodipodi:docname="noun_308298_cc.svg" width="98.553673" height="78.915253" inkscape:version="0.92.1 r15371">
  <metadata id="metadata24">
    <rdf:RDF>
      <cc:Work rdf:about="">
        <dc:format>image/svg+xml</dc:format>
        <dc:type rdf:resource="http://purl.org/dc/dcmitype/StillImage"/>
        <dc:title>Appliances</dc:title>
      </cc:Work>
    </rdf:RDF>
  </metadata>
  <defs id="defs22"/>
  <sodipodi:namedview pagecolor="#ffffff" bordercolor="#666666" borderopacity="1" objecttolerance="10" gridtolerance="10" guidetolerance="10" inkscape:pageopacity="0" inkscape:pageshadow="2" inkscape:window-width="640" inkscape:window-height="480" id="namedview20" showgrid="false" fit-margin-top="10" fit-margin-left="10" fit-margin-right="10" fit-margin-bottom="10" inkscape:zoom="5.9" inkscape:cx="66.410974" inkscape:cy="59.826229" inkscape:window-x="0" inkscape:window-y="0" inkscape:window-maximized="0" inkscape:current-layer="svg18"/>
  <title id="title2">Appliances</title>
  <path d="m 84.871467,19.819208 h -9.05822 L 70.903643,10 H 52.198049 l -4.909604,9.819208 H 29.638418 V 14.909604 H 17.364406 v 4.909604 H 13.682204 A 3.6822034,3.6822034 0 0 0 10,23.501412 v 41.731639 a 3.6822034,3.6822034 0 0 0 3.682204,3.682204 h 71.189263 a 3.6822034,3.6822034 0 0 0 3.682204,-3.682204 V 23.501412 A 3.6822034,3.6822034 0 0 0 84.871467,19.819208 Z M 19.819208,17.364406 h 7.364408 v 2.454802 h -7.364408 z m 66.279661,47.868645 a 1.2274011,1.2274011 0 0 1 -1.227402,1.227402 H 13.682204 A 1.2274011,1.2274011 0 0 1 12.454802,65.233051 V 23.501412 a 1.2274011,1.2274011 0 0 1 1.227402,-1.2274 h 35.128218 l 4.909605,-9.81921 h 15.661638 l 4.909604,9.81921 h 10.580198 a 1.2274011,1.2274011 0 0 1 1.227402,1.2274 z" id="path4" inkscape:connector-curvature="0" style="stroke-width:2.45480227"/>
  <rect x="27.183617" y="24.728815" width="2.4548023" height="39.276836" id="rect6" style="stroke-width:2.45480227"/>
  <path d="M 61.550847,24.728814 A 19.638418,19.638418 0 1 0 81.189265,44.367232 19.638418,19.638418 0 0 0 61.550847,24.728814 Z m 0,36.822034 A 17.183616,17.183616 0 1 1 78.734463,44.367232 17.183616,17.183616 0 0 1 61.550847,61.550848 Z" id="path8" inkscape:connector-curvature="0" style="stroke-width:2.45480227"/>
  <path d="M 61.550847,32.09322 A 12.274011,12.274011 0 1 0 73.824857,44.367232 12.274011,12.274011 0 0 0 61.550847,32.09322 Z m 0,22.093221 a 9.8192089,9.8192089 0 1 1 9.819208,-9.819209 9.8192089,9.8192089 0 0 1 -9.819208,9.819209 z" id="path10" inkscape:connector-curvature="0" style="stroke-width:2.45480227"/>
  <circle cx="41.91243" cy="27.183617" r="2.4548023" id="circle12" style="stroke-width:2.45480227"/>
</svg>